<?xml version="1.0" standalone="no"?>
<!DOCTYPE svg PUBLIC "-//W3C//DTD SVG 20010904//EN"
 "http://www.w3.org/TR/2001/REC-SVG-20010904/DTD/svg10.dtd">
<svg version="1.0" xmlns="http://www.w3.org/2000/svg"
 width="108.000000pt" height="108.000000pt" viewBox="0 0 108.000000 108.000000"
 preserveAspectRatio="xMidYMid meet">
<metadata>
Created by potrace 1.14, written by Peter Selinger 2001-2017
</metadata>
<g transform="translate(0.000000,108.000000) scale(0.100000,-0.100000)"
fill="#000000" stroke="none">
<path d="M79 763 c-1 -4 -2 -106 -3 -225 l-1 -218 135 0 c121 0 141 2 180 23
58 29 83 75 75 136 -10 83 -61 112 -200 113 l-85 1 0 46 0 47 128 -1 127 0 1
41 1 42 -179 1 c-98 1 -179 -2 -179 -6z m267 -268 c19 -26 17 -59 -4 -79 -16
-14 -93 -23 -149 -17 -9 1 -13 20 -13 59 l0 59 76 -2 c62 -1 79 -5 90 -20z"/>
<path d="M549 766 c-1 0 -2 -101 -2 -223 l-2 -223 52 0 53 0 0 90 0 90 35 0
c33 0 38 -5 93 -90 l57 -90 58 0 59 0 -23 38 c-13 20 -44 69 -71 109 -26 40
-48 77 -48 83 0 6 28 52 63 103 34 50 66 97 70 104 6 9 -6 12 -47 12 l-56 -1
-57 -89 c-31 -49 -61 -89 -65 -90 -4 -1 -17 -1 -28 -1 -11 0 -24 0 -30 1 -6 1
-10 38 -10 91 l0 90 -50 -1 c-27 -1 -50 -2 -51 -3z"/>
</g>
</svg>
